<svg xmlns="http://www.w3.org/2000/svg" viewBox="263.07 216.22 272.99 157.63">

 <g>
  <title>Layer 1</title>
  <g>
   <defs transform="translate(118.75 0) translate(0 108.582)">
    <g/>
    <clipPath id="svg_2">
     <path clip-rule="nonzero" d="m118.75,108.75l562,0l0,374.66406l-562,0l0,-374.66406zm0,0"/>
    </clipPath>
    <clipPath id="svg_1">
     <path clip-rule="nonzero" d="m318.67969,216.22266l162.75,0l0,106.5l-162.75,0l0,-106.5zm0,0"/>
    </clipPath>
   </defs>
   <g clip-path="url(#svg_1)">
    <path fill-rule="evenodd" d="m318.94922,284.14453c3.375,3.88281 6.32422,8.09766 9.24609,12.32422c1.29297,1.87109 2.58985,3.73828 3.92188,5.58203c2.54297,3.50391 5.20312,6.94531 8.20703,10.07031c2.75,2.85938 5.94531,5.6211 9.54297,7.34375c5.04687,2.41797 10.625,3.29688 16.21094,3.25391c-0.17969,-0.10938 -0.35938,-0.23047 -0.53516,-0.35547c-1.46484,-1.04297 -2.51953,-2.34766 -3.125,-3.78516l-0.1875,0.22266c-1.34375,1.61719 -3.64844,2.23047 -5.44922,0.95313c-2.00781,-1.41797 -1.95703,-4.02735 -0.65625,-5.89844l0.66016,-0.94922c-1.71875,-1.42188 -2.46875,-3.5 -1.41016,-6.21484c0.62891,-1.61329 1.66016,-2.86329 3.12891,-3.77344c1.01953,-0.63281 2.08984,-1 3.19922,-1.42188l0.14843,-0.16406c-4.86328,-3.36328 -9.15625,-7.52734 -12.11328,-12.70703c-2.15625,-3.78125 -3.32812,-8.17969 -4.02344,-12.45703l-0.07031,-0.4375l-0.03515,-0.21094l-0.20704,0.05469c-4.30859,1.17187 -8.54296,2.59765 -12.77734,4.01953c-4.49609,1.50781 -8.99609,3.01953 -13.57812,4.23828l-0.30079,0.07813l0.20313,0.23437zm85.17187,22c-0.21093,0.30078 -0.41406,0.61719 -0.60937,0.92188c-0.25781,0.40625 -0.50781,0.79296 -0.75391,1.10546c-0.10547,0.10938 -0.21093,0.21485 -0.32031,0.3125c0.83594,0.10547 1.70703,0.10938 2.53906,0.09766c3.05469,-0.04297 6.1211,0.14453 9.14063,0.64844c0.71094,0.11719 1.41797,0.27344 2.11328,0.47265c1.24609,-0.22656 2.52344,-0.39843 3.82812,-0.51171c0.40625,-0.03516 0.71094,-0.14844 0.91016,-0.30469c0.13281,-0.10938 0.22266,-0.24219 0.25781,-0.38281c0.03516,-0.14844 0.01563,-0.30469 -0.0625,-0.45704c-0.09765,-0.19531 -0.29687,-0.39062 -0.60156,-0.55468c-0.88672,-0.48438 -1.875,-0.85547 -3.01562,-1.06641c-1.13672,-0.20703 -2.41797,-0.25781 -3.89844,-0.09375l-0.66797,0.07813c-0.71484,0.09375 -1.36719,0.17578 -2.06641,0.11328c-1.09765,-0.10157 -2.10937,-0.82032 -3.0664,-1.50391l-0.24219,-0.17187c-1.47656,-1.04688 -2.55859,-0.01172 -3.48047,1.29687l-0.00391,0zm9.71094,4.60547zm-1.39062,-0.20703zm-12.13672,-0.98047zm-0.09766,-0.03906zm-0.25781,-0.10938zm-0.59375,-0.30859zm-0.09375,-0.05469zm-0.23828,-0.15625zm-0.08985,-0.06641zm-0.23046,-0.17578zm-0.08594,-0.07031zm2.88672,6.57422zm-13.78907,-37.68359c0.76954,6.0039 1.32422,18.25781 -2.66406,23.41015c-2.00781,2.59375 -5.80078,3.98047 -9.14453,5.13672c-3.79297,1.3125 -8.08984,2.90625 -10.37109,6.44141c-1.85157,2.86328 -1.07422,5.80859 1.57422,7.6914c3.39843,2.41797 8.07421,1.875 11.91015,1.08203c5.73438,-1.1914 11.35938,-2.96484 16.83594,-5.01953c0.63672,-0.23828 1.27344,-0.48047 1.90625,-0.72656c-2.42578,-1.03906 -4.88281,-2.00391 -7.39844,-2.79297c-3.14062,-0.98437 -6.33594,-1.67578 -9.61328,-1.96094c-0.625,-0.05468 -1.24609,-0.24218 -1.73828,-0.63671c-0.39453,-0.3125 -0.67969,-0.73829 -0.79688,-1.23047c-0.125,-0.51953 -0.05468,-1.05078 0.1836,-1.51953c0.26953,-0.53516 0.72656,-0.9336 1.24609,-1.21875c1.08985,-0.59375 2.25,-1 3.46875,-1.22657c1.4336,-0.26172 2.89844,-0.26953 4.34375,-0.11328l0.69531,0.08594c0.56641,0.07031 1.16407,0.15625 1.73829,0.10547c0.73828,-0.06641 1.69921,-0.78906 2.30859,-1.22266l0.24219,-0.17578c2.29687,-1.625 4.25,-0.30469 5.63672,1.67188c0.22656,0.3164 0.4375,0.64453 0.64843,0.97265c0.19922,0.3086 0.40235,0.63672 0.625,0.92969c0.33594,0.33594 0.71094,0.59375 1.11719,0.79297c0.41016,-0.19531 0.78516,-0.45703 1.12109,-0.79297c0.22266,-0.29297 0.42579,-0.62109 0.625,-0.92969c0.21094,-0.32812 0.42188,-0.65625 0.64454,-0.97265c1.39062,-1.97657 3.34375,-3.29688 5.63671,-1.67188l0.2461,0.17578c0.60937,0.4336 1.57031,1.15625 2.30859,1.22266c0.57422,0.05078 1.16797,-0.03516 1.73828,-0.10547l0.69141,-0.08594c1.44922,-0.15625 2.91406,-0.14844 4.34375,0.11328c1.22266,0.22657 2.38281,0.63282 3.47266,1.22657c0.51953,0.28515 0.97656,0.68359 1.24609,1.21875c0.23828,0.46875 0.30859,1 0.18359,1.51953c-0.11718,0.49218 -0.40234,0.91797 -0.79687,1.23047c-0.49219,0.39453 -1.11719,0.58203 -1.73828,0.63671c-0.3086,0.02735 -0.61719,0.0586 -0.92578,0.09375c1.80078,0.83204 3.48437,1.91797 4.99218,3.21485c-2.47265,-1.22266 -5.10547,-2.15235 -7.89062,-2.79297l-0.01563,-0.00391l-0.05859,-0.01172l-0.01563,-0.0039l-0.01953,-0.00391l-0.01172,-0.0039l-0.0039,0l-0.03906,-0.00782l-0.01563,-0.0039l-0.03906,-0.00782l-0.01563,-0.0039l-0.03906,-0.00781l-0.01562,-0.00391l-0.01954,-0.00781l-0.01953,-0.00391l-0.01562,0l-0.01953,-0.00781l-0.01953,-0.00391l-0.01563,-0.0039l-0.03906,-0.00782l-0.01563,-0.0039l-0.03906,-0.00782l-0.01562,-0.0039l-0.03907,-0.00781l-0.01562,-0.00391l-0.00391,0l-0.01562,-0.00391l-0.01953,-0.0039l-0.01563,-0.00391l-0.03906,-0.00781l-0.01563,-0.00391l-0.03906,-0.00781l-0.00781,0l-0.01172,-0.00391l-0.01563,-0.0039l-0.03906,-0.00782l-0.01562,-0.0039l-0.03907,-0.00781l-0.01562,-0.00391l-0.01172,0l-0.00781,-0.00391l-0.01953,-0.0039l-0.01563,-0.00391l-0.03906,-0.00781l-0.01563,0l-0.03906,-0.00781l-0.01562,-0.00391l-0.00391,0l-0.01562,-0.00391l-0.03907,-0.00781l-0.01562,-0.00391l-0.0586,-0.01171l-0.01562,-0.00391l-0.12891,-0.02344l-0.02343,-0.00781l-0.01954,0l-0.03906,-0.01172l-0.08594,-0.01562l-0.00781,0l-0.03515,-0.00782l-0.08594,-0.01562l-0.02735,-0.00391l-0.01562,-0.0039l-0.12891,-0.02344l-0.00781,-0.00391l-0.03516,-0.0039l-0.08593,-0.01563l-0.03125,-0.00781l-0.01172,0l-0.03906,-0.00781l-0.08594,-0.01563l-0.01563,-0.00391l-0.02734,-0.0039l-0.08594,-0.01563l-0.03906,-0.0039l-0.00391,-0.00391l-0.04297,-0.00391l-0.08593,-0.01562l-0.01953,-0.00391l-0.02344,-0.0039l-0.17188,-0.03125l-0.04687,-0.00391l-0.04297,-0.00781l-0.03906,-0.00781l-0.04688,-0.00782l-0.04297,-0.0039l-0.04297,-0.00782l-0.0039,0l-0.03906,-0.00781l-0.04297,-0.00781l-0.04297,-0.00391l-0.02735,-0.0039l-0.01562,-0.00391l-0.04297,-0.00781l-0.04297,-0.00391l-0.04297,-0.00781l-0.01172,-0.00391l-0.03515,-0.0039l-0.04297,-0.00391l-0.04297,-0.00781l-0.03125,-0.00391l-0.01172,-0.0039l-0.04297,-0.00391l-0.08593,-0.01563l-0.01563,0l-0.03125,-0.0039l-0.08594,-0.01172l-0.03515,-0.00781l-0.00782,0l-0.04296,-0.00391l-0.08594,-0.01562l-0.01953,0l-0.02735,-0.00391l-0.04297,-0.00781l-0.04296,-0.00391l-0.04297,-0.00781c-2.38672,-0.3125 -4.8711,-0.44922 -7.44532,-0.41406c-1.23046,0.01953 -2.49609,-0.00391 -3.67578,-0.26563c-0.28906,-0.06641 -0.57422,-0.14453 -0.85156,-0.24219l-0.00391,0l-0.02734,-0.01172l-0.02734,-0.00781l-0.00782,-0.0039l-0.03125,-0.01172l-0.01171,-0.00391l-0.01954,-0.00781l-0.03515,-0.01172l-0.03125,-0.01172l-0.01953,-0.00781l-0.01563,-0.00781l-0.03515,-0.01172l-0.02735,-0.01172l-0.02344,-0.00781l-0.01171,-0.00782l-0.03125,-0.01172l-0.03125,-0.01562l-0.02735,-0.00781l-0.03906,-0.01953l-0.01172,-0.00391l-0.01953,-0.00781l-0.03125,-0.01563l-0.03516,-0.01562l-0.01562,-0.00782l-0.01563,-0.0039l-0.03125,-0.01563l-0.0039,-0.0039l-0.02735,-0.01172l-0.09375,-0.04688l-0.02734,-0.01172l-0.00391,-0.0039l-0.0625,-0.03125l-0.03125,-0.01953l-0.03125,-0.01563l-0.01953,-0.00781l-0.01172,-0.00781l-0.03125,-0.01953l-0.00781,0l-0.02344,-0.01563l-0.03125,-0.01562l-0.03125,-0.01954l-0.00781,-0.0039l-0.02344,-0.01563l-0.03125,-0.01562l-0.03125,-0.01953l-0.01172,-0.00782l-0.01562,-0.01171l-0.03125,-0.01954l-0.03125,-0.01562l-0.01953,-0.01172l-0.01172,-0.00781l-0.02734,-0.01953l-0.00782,-0.00391l-0.04687,-0.03125l-0.00391,-0.00391l-0.03125,-0.01953l-0.01172,-0.00781l-0.01953,-0.01172l-0.02734,-0.02344l-0.03125,-0.01953l-0.01563,-0.01172l-0.01172,-0.00781l-0.03125,-0.02344l-0.02734,-0.01953l-0.01953,-0.01562l-0.01172,-0.00781l-0.02734,-0.01954l-0.00782,-0.00781l-0.02343,-0.01562l-0.02344,-0.01953l-0.00391,-0.00391l-0.02734,-0.02344l-0.01172,-0.00781l-0.01953,-0.01172l-0.05469,-0.04687l-0.03125,-0.02344l-0.03125,-0.02735l-0.02344,-0.01953l-0.01953,-0.01953l-0.00781,-0.0039l-0.02734,-0.02735l-0.00782,-0.0039l-0.02343,-0.01954c-0.10938,-0.09765 -0.21485,-0.20312 -0.32032,-0.3125c-0.24609,-0.3125 -0.49609,-0.69921 -0.7539,-1.10546c-0.19922,-0.30469 -0.40235,-0.6211 -0.61328,-0.92188c-0.92188,-1.30859 -2.00391,-2.34375 -3.48047,-1.29687l-0.24219,0.17187c-0.95703,0.68359 -1.96875,1.40234 -3.06641,1.50391c-0.69921,0.0625 -1.35156,-0.01953 -2.0664,-0.11328l-0.66797,-0.07813c-1.48047,-0.16406 -2.76172,-0.11328 -3.89844,0.09375c-1.14062,0.21094 -2.1289,0.58203 -3.01562,1.06641c-0.30469,0.16406 -0.50391,0.35937 -0.60157,0.55468c-0.07812,0.15235 -0.09765,0.3086 -0.0625,0.45704c0.03516,0.14062 0.125,0.27343 0.25782,0.38281c0.19922,0.15625 0.5039,0.26953 0.91015,0.30469c3.50782,0.30468 6.78907,1.03906 9.94141,2.02734c3.3125,1.03516 6.79297,2.41797 10.03906,3.6875l0.01563,0.00391l0.01172,0.0039l0.01562,0.00781l0.01172,0.00391l0.01562,0.00781l0.03907,0.01563l0.53125,0.20703l0.78125,0.30859c0.65625,0.25391 1.3125,0.50391 1.96875,0.75c5.47656,2.05469 11.10156,3.82813 16.83593,5.01563c3.83594,0.79687 8.51563,1.33594 11.91407,-1.07813c2.64843,-1.88281 3.42187,-4.82812 1.57422,-7.6914c-2.28516,-3.53516 -6.58204,-5.12891 -10.375,-6.44141c-3.34375,-1.15625 -7.13672,-2.54297 -9.14063,-5.13672c-3.99219,-5.15234 -3.43359,-17.40625 -2.66406,-23.41015c2.88672,6.9414 5.34375,14.1875 10.33594,19.66406c3.4414,3.77344 7.1289,6.92187 10.01171,11.2539l7.21094,8.67188c1.25391,1.50781 3.11328,0.21875 1.8086,-1.65625l-2.40235,-3.45313c2.29297,-0.72656 3.79297,-1.85937 2.85547,-4.27734c-1.38281,-3.54297 -4.97266,-3 -7.52734,-5.11328c-1.52735,-1.26563 -2.09766,-3.03516 -3.04297,-4.85547c-3.30469,-6.37109 -8.0586,-12.69141 -10.08203,-19.44531c-1.09375,-3.63281 -2.16407,-7.82422 -4.30469,-10.63281c-0.90234,-1.17579 -2.03516,-2.08204 -3.35938,-2.76563c-2.51953,-1.29687 -5.5664,-1.24609 -7.84375,-3.01562c-2.33593,-1.81641 -2.12109,-4.35157 -0.95703,-6.91407c0.7461,-1.63672 1.375,-3.3164 1.79297,-5.0664c1.90235,-7.94922 -2.46875,-11.92578 -6.83984,-11.92578c-4.3711,0 -8.73828,3.97656 -6.83594,11.92578c0.41797,1.75 1.04297,3.42968 1.78906,5.0664c1.16797,2.5625 1.37891,5.09766 -0.95703,6.91407c-2.27734,1.76953 -5.32031,1.71875 -7.83984,3.01562c-1.32422,0.68359 -2.46094,1.58984 -3.35938,2.76563c-2.14453,2.80859 -3.21484,7 -4.30468,10.63281c-2.02344,6.7539 -6.78125,13.07422 -10.08594,19.44531c-0.94141,1.82031 -1.51172,3.58984 -3.03906,4.85547c-2.5586,2.11328 -6.14844,1.57031 -7.52735,5.11328c-0.9414,2.41797 0.5625,3.55078 2.85156,4.27734l-2.39843,3.45313c-1.3086,1.875 0.55468,3.16406 1.80468,1.65625l7.21094,-8.67188c2.88281,-4.33203 6.57422,-7.48046 10.01172,-11.2539c4.99219,-5.47656 7.44922,-12.72266 10.33984,-19.66406zm50.39454,31.07421c0,-0.63281 0.51562,-1.14843 1.14453,-1.14843c0.63281,0 1.14843,0.51562 1.14843,1.14843c0,0.63672 -0.51562,1.14844 -1.14843,1.14844c-0.62891,0 -1.14453,-0.51172 -1.14453,-1.14844zm-77.25391,-1.14843c0.63281,0 1.14453,0.51562 1.14453,1.14843c0,0.63672 -0.51172,1.14844 -1.14453,1.14844c-0.63281,0 -1.14453,-0.51172 -1.14453,-1.14844c0,-0.63281 0.51172,-1.14843 1.14453,-1.14843zm53.81641,-17.69141c0.24609,3.84766 0.95703,7.48828 2.52343,9.51563c1.61328,2.07812 5.40235,3.375 7.85938,4.22265c-1.44922,-1.49219 -2.92578,-2.95312 -4.31641,-4.48047c-2.53906,-2.78515 -4.44531,-5.9414 -6.0664,-9.25781zm8.98828,-13.89844l0.49218,1.67188c0.33594,1.11328 0.7461,2.20703 1.21485,3.28906c0.28515,-1.82422 0.49219,-3.66016 0.6289,-5.49609l0.01954,-0.27735l-0.26563,0.07422c-0.71094,0.19922 -1.41797,0.41406 -2.12109,0.64063l0.03125,0.09765zm-3.22657,-24.8164c-3.74609,1.65625 -7.28125,3.78125 -10.48828,6.33593c-0.85547,0.6836 -1.6875,1.39454 -2.49609,2.13282c0.05078,0.05468 0.10547,0.10547 0.16406,0.16015l0.10547,0.08203c1.03906,0.8086 2.67969,1.16016 3.92578,1.49219c0.77344,0.20703 1.53906,0.42969 2.28906,0.71875c0.41016,0.16016 0.8125,0.33594 1.20313,0.53516c1.67578,0.86328 3.125,2.03125 4.26953,3.53515c1.53516,2.00782 2.54688,4.45704 3.36719,6.94922c1.07422,-0.34375 2.15234,-0.65625 3.24609,-0.9414l0.14063,-0.03516l0,-0.14844c0.05078,-1.95703 0.01562,-3.92187 -0.09375,-5.8789c-0.1836,-3.33203 -0.67578,-6.64453 -1.51172,-9.87891c-0.50781,-1.96875 -1.14844,-3.90234 -1.90235,-5.78906l-0.07421,-0.17969l-0.17969,0.07031c-0.66016,0.27344 -1.3125,0.55078 -1.96485,0.83985zm8.59766,23.41406c-0.23828,3.48828 -0.77734,6.99219 -1.67969,10.37891l0.22266,0.41406c0.63672,1.14844 1.30078,2.28125 1.95312,3.38281c1.54297,2.60547 3.12891,5.1875 4.51954,7.875c0.44921,0.86719 0.96093,2.16797 1.60937,3.13672c4.89063,-3.22266 9.27344,-7.27734 12.20313,-12.41016c1.98046,-3.46875 3.04296,-7.55859 3.67968,-11.48047l0.11328,-0.72265l0.02735,-0.17969l-0.17188,-0.03906c-1.08984,-0.25781 -2.1875,-0.4961 -3.28515,-0.70703c-4.01953,-0.76953 -8.13672,-1.03907 -12.22266,-0.76953c-2.28906,0.15625 -4.56641,0.47656 -6.81641,0.94531l-0.14062,0.03125l-0.01172,0.14453zm-49.66016,24.55859c-1.39062,1.52735 -2.86718,2.98828 -4.3164,4.48047c2.45703,-0.84765 6.25,-2.14453 7.85937,-4.22265c1.56641,-2.02735 2.28125,-5.66797 2.52735,-9.51563c-1.625,3.31641 -3.53125,6.47266 -6.07032,9.25781zm-5.2539,-23.6914c0.13281,1.83593 0.33984,3.67187 0.625,5.49609c0.46875,-1.08203 0.88281,-2.17578 1.21484,-3.28906l0.4961,-1.67188l0.02734,-0.10156c-0.70313,-0.22656 -1.41016,-0.4375 -2.12109,-0.63672l-0.26172,-0.07422l0.01953,0.27344l0,0.00391zm-25.54688,0.42968c0.64063,3.92188 1.70313,8.01172 3.67969,11.48047c2.92969,5.13282 7.31641,9.1875 12.20703,12.41016c0.64844,-0.96875 1.15625,-2.26953 1.60547,-3.13672c1.39453,-2.6875 2.98047,-5.26953 4.51953,-7.875c0.65625,-1.10156 1.31641,-2.23437 1.95313,-3.38281l0.22656,-0.41406c-0.90234,-3.38672 -1.44141,-6.89063 -1.68359,-10.37891l-0.00782,-0.14453l-0.14453,-0.03125c-2.24609,-0.46875 -4.52344,-0.78906 -6.8164,-0.94531c-4.08204,-0.26954 -8.19922,0 -12.21875,0.76953c-1.10157,0.21093 -2.19532,0.44922 -3.28516,0.70703l-0.17578,0.03906l0.02734,0.17969l0.11328,0.72265zm26.98438,-19.65234c-0.83594,3.23438 -1.32422,6.54297 -1.51172,9.87891c-0.10938,1.95703 -0.14063,3.92187 -0.09375,5.8789l0.00391,0.14844l0.14062,0.03516c1.08984,0.28515 2.17188,0.59765 3.24219,0.9414c0.82031,-2.49218 1.83203,-4.9414 3.36719,-6.94922c1.14843,-1.5039 2.59765,-2.67187 4.27343,-3.53515c0.39063,-0.19922 0.79297,-0.375 1.19922,-0.53516c0.75,-0.28906 1.51563,-0.51172 2.28906,-0.71875c1.2461,-0.33203 2.88672,-0.68359 3.92969,-1.49219l0.10156,-0.08203c0.0625,-0.05468 0.11329,-0.10547 0.16407,-0.16015c-0.80469,-0.73828 -1.63672,-1.44922 -2.4961,-2.13282c-3.20703,-2.55468 -6.74218,-4.67968 -10.48828,-6.33593c-0.64844,-0.28907 -1.30469,-0.56641 -1.96484,-0.83985l-0.17969,-0.07031l-0.07031,0.17969c-0.75781,1.88672 -1.39453,3.82031 -1.90625,5.78906zm74.8164,32.57422c-2.95703,5.17969 -7.25,9.34375 -12.11328,12.70703l0.14844,0.16406c1.11328,0.42188 2.17969,0.78907 3.19922,1.42188c1.46875,0.91015 2.5,2.16015 3.13281,3.77344c1.05469,2.71484 0.3086,4.79296 -1.41406,6.21484l0.66016,0.94922c1.30078,1.87109 1.35546,4.48047 -0.65235,5.89844c-1.80469,1.27734 -4.10547,0.66406 -5.45312,-0.95313l-0.1836,-0.22266c-0.60547,1.4375 -1.66015,2.74219 -3.1289,3.78516c-0.17578,0.125 -0.35157,0.24609 -0.53125,0.35547c5.58203,0.04297 11.16015,-0.83594 16.21093,-3.25391c3.59375,-1.72265 6.78907,-4.48437 9.53907,-7.34375c3.0039,-3.125 5.66797,-6.5664 8.20703,-10.07031c1.33594,-1.84375 2.6289,-3.71094 3.92187,-5.58203c2.92578,-4.22656 5.875,-8.44141 9.2461,-12.32422l0.20312,-0.23437l-0.30078,-0.07813c-4.58203,-1.21875 -9.08203,-2.73047 -13.57812,-4.23828c-4.23047,-1.42188 -8.46485,-2.84766 -12.77735,-4.01953l-0.20703,-0.05469l-0.03125,0.21094l-0.07031,0.4375c-0.69922,4.27734 -1.86719,8.67578 -4.02735,12.45703zm-25.01562,-39.40625c0.79297,1.98828 1.46484,4.02734 2.00391,6.10156c1.3125,5.08594 1.88671,10.46485 1.8125,15.71094l-0.00391,0.23828l0.23047,-0.04297c2.12109,-0.41015 4.26172,-0.69531 6.41015,-0.83594c4.33204,-0.28906 8.69532,-0.0039 12.95704,0.8125c1.02734,0.19922 2.04687,0.41797 3.0664,0.65235l0.21094,0.05078l0.02344,-0.21875c0.30468,-2.97266 0.4414,-5.96094 0.50781,-8.94531c0.05469,-2.27735 0.05859,-4.55469 0.0625,-6.82813c0.00781,-5.14453 0.04297,-10.29297 0.61328,-15.41015l0.03516,-0.3086l-0.29297,0.10547c-4.46094,1.61328 -9.01953,2.9375 -13.57422,4.25781c-4.68359,1.35938 -9.375,2.71485 -13.95313,4.40235l-0.18359,0.07031l0.07422,0.1875zm-33.92188,-21.14844c-4.00781,5.35938 -8.04296,10.73438 -11.30468,16.58985c-0.46875,0.84765 -0.91797,1.70703 -1.33594,2.57812l-0.08984,0.1875l0.1875,0.07813c0.65625,0.26953 1.30859,0.54687 1.95703,0.83203c3.96875,1.75781 7.71875,4.01172 11.11718,6.71875l0.21485,0.16797c-0.65625,-1.53125 -1.20313,-3.10157 -1.59375,-4.72266c-2.41797,-10.10156 3.52734,-15.15234 9.46875,-15.15234c5.94531,0 11.88672,5.05078 9.46875,15.15234c-0.38672,1.62109 -0.9375,3.19141 -1.58985,4.72266l0.21094,-0.16797c3.39844,-2.70703 7.14844,-4.96094 11.1211,-6.71875c0.64453,-0.28516 1.29687,-0.5625 1.95312,-0.83203l0.1875,-0.07813l-0.08594,-0.1875c-0.42187,-0.87109 -0.86718,-1.73047 -1.33984,-2.57812c-3.26172,-5.85547 -7.29688,-11.23047 -11.30078,-16.58985c-2.84375,-3.80469 -5.69141,-7.60937 -8.28906,-11.58984l-0.16797,-0.25781l-0.15625,0.26562l-0.01172,0.01563l-0.00781,-0.01563l-0.16016,-0.26562l-0.16797,0.25781c-2.59766,3.98047 -5.44531,7.78515 -8.28516,11.58984zm-44.57031,12.4336c0.57031,5.11718 0.60547,10.26562 0.61328,15.41015c0,2.27344 0.00782,4.55078 0.0586,6.82422c0.07031,2.98828 0.20312,5.97656 0.50781,8.94922l0.02344,0.21875l0.21093,-0.05078c1.01954,-0.23438 2.04297,-0.45313 3.06641,-0.65235c4.26172,-0.8164 8.62891,-1.10156 12.95703,-0.8125c2.15235,0.14063 4.29297,0.42579 6.41016,0.83594l0.23047,0.04297l0,-0.23828c-0.07422,-5.24609 0.49609,-10.625 1.8125,-15.71094c0.53515,-2.07422 1.20703,-4.11328 2.0039,-6.10547l0.07422,-0.18359l-0.1875,-0.07031c-4.57812,-1.6875 -9.26953,-3.04297 -13.94922,-4.40235c-4.55468,-1.32422 -9.11328,-2.64453 -13.57812,-4.25781l-0.28906,-0.10547l0.03515,0.3086zm0,0" fill="#ff8000"/>
   </g>
   <g fill="#1025a1">
    <g transform="translate(144.26 244.465)">
     <g>
      <path d="m129.54688,100.17578l0,1.95312c0,0.49219 0,0.94532 0,1.35938c0,0.40625 0,0.79297 0,1.15625c0,0.36719 0.0039,0.72656 0.01562,1.07812c0.00781,0.35547 0.01563,0.73438 0.01563,1.14063l2.64062,0.28125l0,1.4375l-9.53125,0l0,-1.4375l2.64063,-0.28125c0.01953,-0.76953 0.03125,-1.5 0.03125,-2.1875c0,-0.6875 0,-1.53516 0,-2.54688l0,-1.64062l-4.6875,-9.07813l-1.85938,-0.1875l0,-1.4375l8.8125,0l0,1.4375l-2.26562,0.25l3.32812,7.40625l3.60938,-7.34375l-2.29688,-0.3125l0,-1.4375l6.09375,0l0,1.4375l-2.125,0.35938l-4.42187,8.59375zm0,0"/>
     </g>
    </g>
   </g>
   <g fill="#1025a1">
    <g transform="translate(168.199 244.465)">
     <g>
      <path d="m124.0625,99.1914c0,1.03125 0.08203,2.04297 0.25,3.03125c0.17578,0.99219 0.45703,1.875 0.84375,2.65625c0.39453,0.77344 0.89844,1.39063 1.51563,1.85938c0.61328,0.46875 1.35937,0.70312 2.23437,0.70312c0.88281,0 1.62891,-0.23437 2.23438,-0.70312c0.61328,-0.46875 1.11328,-1.08594 1.5,-1.85938c0.38281,-0.78125 0.66406,-1.66406 0.84375,-2.65625c0.1875,-0.98828 0.28125,-2 0.28125,-3.03125c0,-1.03125 -0.09375,-2.03906 -0.28125,-3.03125c-0.17969,-1 -0.46094,-1.88281 -0.84375,-2.65625c-0.38672,-0.78125 -0.88672,-1.40625 -1.5,-1.875c-0.60547,-0.46875 -1.35157,-0.70312 -2.23438,-0.70312c-0.875,0 -1.62109,0.23437 -2.23437,0.70312c-0.61719,0.46875 -1.1211,1.09375 -1.51563,1.875c-0.38672,0.77344 -0.66797,1.65625 -0.84375,2.65625c-0.16797,0.99219 -0.25,2 -0.25,3.03125zm4.84375,-9.84375c1.13281,0 2.25,0.21094 3.34375,0.625c1.10156,0.40625 2.09375,1.01563 2.96875,1.82813c0.88281,0.8125 1.59375,1.83984 2.125,3.07812c0.53906,1.23047 0.8125,2.66797 0.8125,4.3125c0,1.64844 -0.27344,3.08594 -0.8125,4.3125c-0.53125,1.21875 -1.23437,2.24219 -2.10937,3.0625c-0.86719,0.8125 -1.85547,1.42969 -2.96875,1.84375c-1.10547,0.40626 -2.22657,0.60938 -3.35938,0.60938c-1.125,0 -2.24609,-0.20312 -3.35937,-0.60938c-1.10547,-0.41406 -2.09375,-1.03125 -2.96875,-1.84375c-0.86719,-0.82031 -1.57032,-1.84375 -2.10938,-3.0625c-0.53125,-1.22656 -0.79687,-2.66406 -0.79687,-4.3125c0,-1.64453 0.26562,-3.08203 0.79687,-4.3125c0.53906,-1.23828 1.25,-2.26562 2.125,-3.07812c0.88281,-0.8125 1.875,-1.42188 2.96875,-1.82813c1.10156,-0.41406 2.21875,-0.625 3.34375,-0.625zm0,0"/>
     </g>
    </g>
   </g>
   <g fill="#1025a1">
    <g transform="translate(195.065 244.465)">
     <g>
      <path d="m137.40625,101.09765l-1.54687,0.1875c-0.02344,0.8125 -0.03907,1.61719 -0.04688,2.40625c-0.01172,0.79297 -0.01562,1.60157 -0.01562,2.42188l0,1.23437c-1.01172,0.55469 -2.01563,0.96875 -3.01563,1.25001c-0.99219,0.28125 -2.05859,0.42187 -3.20312,0.42187c-1.52344,0 -2.89844,-0.25 -4.125,-0.75c-1.21875,-0.5 -2.26563,-1.17969 -3.14063,-2.04688c-0.86719,-0.875 -1.53125,-1.91015 -2,-3.10937c-0.46875,-1.19531 -0.70312,-2.50391 -0.70312,-3.92188c0,-1.41406 0.23828,-2.72265 0.71875,-3.92187c0.47656,-1.20703 1.16015,-2.24219 2.04687,-3.10938c0.89453,-0.875 1.97266,-1.5625 3.23438,-2.0625c1.25781,-0.5 2.67578,-0.75 4.25,-0.75c0.91406,0 1.83203,0.10547 2.75,0.3125c0.91406,0.19922 1.88281,0.54688 2.90625,1.04688l0.10937,4.0625l-2.29687,0l-0.51563,-3.1875c-0.89844,-0.4375 -1.8125,-0.65625 -2.75,-0.65625c-1.85547,0 -3.32812,0.71875 -4.42187,2.15625c-1.09375,1.4375 -1.64063,3.47656 -1.64063,6.10937c0,1.30469 0.15625,2.46875 0.46875,3.5c0.32031,1.02344 0.75391,1.88672 1.29688,2.59375c0.55078,0.71094 1.19531,1.2461 1.9375,1.60938c0.75,0.36719 1.5625,0.54687 2.4375,0.54687c0.5625,0 1.07031,-0.0664 1.53125,-0.20312l0,-1.125c0,-0.80078 -0.00782,-1.59375 -0.01563,-2.375c-0.01172,-0.78906 -0.02734,-1.58594 -0.04687,-2.39063l-2.125,-0.25l0,-1.4375l7.92187,0l0,1.4375zm0,0"/>
     </g>
    </g>
   </g>
   <g fill="#1025a1">
    <g transform="translate(220.955 244.465)">
     <g>
      <path d="m126.29688,91.47265c-0.04297,1.1875 -0.0625,2.38282 -0.0625,3.57813c0,1.19922 0,2.40625 0,3.625l0,1.01562c0,1.19922 0,2.39844 0,3.59375c0,1.19922 0.01953,2.40235 0.0625,3.60938l2.32812,0.25l0,1.4375l-8.95312,0l0,-1.4375l2.32812,-0.25c0.03125,-1.1875 0.04688,-2.37891 0.04688,-3.57813c0,-1.19531 0,-2.40625 0,-3.625l0,-1.01562c0,-1.19531 0,-2.39453 0,-3.59375c0,-1.19531 -0.01563,-2.39844 -0.04688,-3.60938l-2.32812,-0.25l0,-1.4375l8.95312,0l0,1.4375l-2.32812,0.25zm0,0"/>
     </g>
    </g>
   </g>
   <g fill="#1025a1">
    <g transform="translate(238.293 244.465)">
     <g>
      <path d="m135.59375,103.30078l-0.10937,4.35937c-0.80469,0.4375 -1.69532,0.77344 -2.67188,1.00001c-0.98047,0.23828 -2.01172,0.35937 -3.09375,0.35937c-1.48047,0 -2.83984,-0.20312 -4.07812,-0.60937c-1.23047,-0.41407 -2.29297,-1.03516 -3.1875,-1.85938c-0.89844,-0.82031 -1.59375,-1.84766 -2.09375,-3.07813c-0.5,-1.22656 -0.75,-2.65625 -0.75,-4.28125c0,-1.625 0.25781,-3.05078 0.78125,-4.28125c0.53125,-1.23828 1.2539,-2.26953 2.17187,-3.09375c0.91406,-0.82031 2.00781,-1.4375 3.28125,-1.84375c1.28125,-0.41406 2.66406,-0.625 4.15625,-0.625c0.91406,0 1.78906,0.10547 2.625,0.3125c0.83203,0.19922 1.69141,0.54688 2.57813,1.04688l0.10937,4.35937l-2.26562,0l-0.57813,-3.625c-0.80469,-0.34375 -1.61719,-0.51562 -2.4375,-0.51562c-0.84375,0 -1.63672,0.17969 -2.375,0.53125c-0.73047,0.35547 -1.37109,0.88281 -1.92187,1.57812c-0.54297,0.69922 -0.96875,1.57032 -1.28125,2.60938c-0.30469,1.03125 -0.45313,2.21484 -0.45313,3.54687c0,1.34375 0.14844,2.52735 0.45313,3.54688c0.3125,1.02344 0.73828,1.88672 1.28125,2.59375c0.55078,0.69922 1.1914,1.22656 1.92187,1.57812c0.73828,0.35547 1.53125,0.53125 2.375,0.53125c0.89453,0 1.80078,-0.17578 2.71875,-0.53125l0.54688,-3.60937l2.29687,0zm0,0"/>
     </g>
    </g>
   </g>
   <g fill="#1025a1">
    <g transform="translate(262.691 244.465)">
     <g/>
    </g>
   </g>
   <g fill="#1025a1">
    <g transform="translate(275.551 244.465)">
     <g>
      <path d="m127.96875,97.41015c1.03125,0.36719 1.89063,0.76563 2.57813,1.20313c0.6875,0.42969 1.23437,0.88672 1.64062,1.375c0.41406,0.49219 0.71094,1 0.89063,1.53125c0.1875,0.52344 0.28125,1.05859 0.28125,1.60937c0,0.84375 -0.1836,1.6211 -0.54688,2.32813c-0.36719,0.71094 -0.88281,1.33594 -1.54687,1.875c-0.65625,0.53125 -1.44922,0.94922 -2.375,1.25c-0.92969,0.28906 -1.96485,0.4375 -3.10938,0.4375c-1.09375,0 -2.17969,-0.13281 -3.25,-0.39062c-1.0625,-0.25782 -1.99219,-0.62891 -2.78125,-1.10938l0.17188,-4.21875l2.39062,0l0.57813,3.4375c0.4375,0.21875 0.88281,0.39062 1.34375,0.51562c0.45703,0.125 0.96093,0.1875 1.51562,0.1875c1.20703,0 2.14453,-0.27343 2.8125,-0.82812c0.67578,-0.5625 1.01563,-1.30078 1.01563,-2.21875c0,-0.72656 -0.23438,-1.30078 -0.70313,-1.71875c-0.46875,-0.42578 -1.22656,-0.83203 -2.26562,-1.21875l-1.40625,-0.51563c-1.69922,-0.60156 -3.02344,-1.40625 -3.96875,-2.40625c-0.94922,-1.00781 -1.42188,-2.23437 -1.42188,-3.67187c0,-0.80078 0.15625,-1.53516 0.46875,-2.20313c0.32031,-0.67578 0.78125,-1.25781 1.375,-1.75c0.60156,-0.48828 1.33203,-0.86718 2.1875,-1.14062c0.85156,-0.28125 1.82813,-0.42188 2.92188,-0.42188c1.05078,0 2.03906,0.13282 2.96875,0.39063c0.92578,0.26172 1.73437,0.63281 2.42187,1.10937l-0.20312,3.92188l-2.35938,0l-0.5625,-3.375c-0.38672,-0.15625 -0.76172,-0.26953 -1.125,-0.34375c-0.36719,-0.08203 -0.74219,-0.125 -1.125,-0.125c-0.94922,0 -1.75,0.25 -2.40625,0.75c-0.64844,0.5 -0.96875,1.21094 -0.96875,2.125c0,0.80469 0.26563,1.43359 0.79688,1.89062c0.53125,0.46094 1.28515,0.85938 2.26562,1.20313l1.5,0.51562zm0,0"/>
     </g>
    </g>
   </g>
   <g fill="#1025a1">
    <g transform="translate(297.424 244.465)">
     <g>
      <path d="m129.54688,100.17578l0,1.95312c0,0.49219 0,0.94532 0,1.35938c0,0.40625 0,0.79297 0,1.15625c0,0.36719 0.0039,0.72656 0.01562,1.07812c0.00781,0.35547 0.01563,0.73438 0.01563,1.14063l2.64062,0.28125l0,1.4375l-9.53125,0l0,-1.4375l2.64063,-0.28125c0.01953,-0.76953 0.03125,-1.5 0.03125,-2.1875c0,-0.6875 0,-1.53516 0,-2.54688l0,-1.64062l-4.6875,-9.07813l-1.85938,-0.1875l0,-1.4375l8.8125,0l0,1.4375l-2.26562,0.25l3.32812,7.40625l3.60938,-7.34375l-2.29688,-0.3125l0,-1.4375l6.09375,0l0,1.4375l-2.125,0.35938l-4.42187,8.59375zm0,0"/>
     </g>
    </g>
   </g>
   <g fill="#1025a1">
    <g transform="translate(321.362 244.465)">
     <g>
      <path d="m127.96875,97.41015c1.03125,0.36719 1.89063,0.76563 2.57813,1.20313c0.6875,0.42969 1.23437,0.88672 1.64062,1.375c0.41406,0.49219 0.71094,1 0.89063,1.53125c0.1875,0.52344 0.28125,1.05859 0.28125,1.60937c0,0.84375 -0.1836,1.6211 -0.54688,2.32813c-0.36719,0.71094 -0.88281,1.33594 -1.54687,1.875c-0.65625,0.53125 -1.44922,0.94922 -2.375,1.25c-0.92969,0.28906 -1.96485,0.4375 -3.10938,0.4375c-1.09375,0 -2.17969,-0.13281 -3.25,-0.39062c-1.0625,-0.25782 -1.99219,-0.62891 -2.78125,-1.10938l0.17188,-4.21875l2.39062,0l0.57813,3.4375c0.4375,0.21875 0.88281,0.39062 1.34375,0.51562c0.45703,0.125 0.96093,0.1875 1.51562,0.1875c1.20703,0 2.14453,-0.27343 2.8125,-0.82812c0.67578,-0.5625 1.01563,-1.30078 1.01563,-2.21875c0,-0.72656 -0.23438,-1.30078 -0.70313,-1.71875c-0.46875,-0.42578 -1.22656,-0.83203 -2.26562,-1.21875l-1.40625,-0.51563c-1.69922,-0.60156 -3.02344,-1.40625 -3.96875,-2.40625c-0.94922,-1.00781 -1.42188,-2.23437 -1.42188,-3.67187c0,-0.80078 0.15625,-1.53516 0.46875,-2.20313c0.32031,-0.67578 0.78125,-1.25781 1.375,-1.75c0.60156,-0.48828 1.33203,-0.86718 2.1875,-1.14062c0.85156,-0.28125 1.82813,-0.42188 2.92188,-0.42188c1.05078,0 2.03906,0.13282 2.96875,0.39063c0.92578,0.26172 1.73437,0.63281 2.42187,1.10937l-0.20312,3.92188l-2.35938,0l-0.5625,-3.375c-0.38672,-0.15625 -0.76172,-0.26953 -1.125,-0.34375c-0.36719,-0.08203 -0.74219,-0.125 -1.125,-0.125c-0.94922,0 -1.75,0.25 -2.40625,0.75c-0.64844,0.5 -0.96875,1.21094 -0.96875,2.125c0,0.80469 0.26563,1.43359 0.79688,1.89062c0.53125,0.46094 1.28515,0.85938 2.26562,1.20313l1.5,0.51562zm0,0"/>
     </g>
    </g>
   </g>
   <g fill="#1025a1">
    <g transform="translate(343.235 244.465)">
     <g>
      <path d="m130.14063,91.36328c-0.03125,1.21094 -0.04688,2.42187 -0.04688,3.64062c0,1.21094 0,2.4336 0,3.67188l0,1.01562c0,1.19922 0,2.39063 0,3.57813c0,1.1875 0.01563,2.38672 0.04688,3.59375l2.60937,0.28125l0,1.4375l-9.51562,0l0,-1.4375l2.60937,-0.28125c0.03125,-1.1875 0.04688,-2.37891 0.04688,-3.57813c0,-1.19531 0,-2.39453 0,-3.59375l0,-1.01562c0,-1.21875 0,-2.4375 0,-3.65625c0,-1.21875 -0.01563,-2.4375 -0.04688,-3.65625l-3.79687,0l-0.5625,3.70312l-2.15625,0l0.14062,-5.28125l17.04688,0l0.14062,5.28125l-2.14062,0l-0.57813,-3.70312l-3.79687,0zm0,0"/>
     </g>
    </g>
   </g>
   <g fill="#1025a1">
    <g transform="translate(368.264 244.465)">
     <g>
      <path d="m135.20313,103.58203l-0.20313,5l-15.32812,0l0,-1.4375l2.32812,-0.25c0.03125,-1.1875 0.04688,-2.37891 0.04688,-3.57813c0,-1.19531 0,-2.40625 0,-3.625l0,-1.01562c0,-1.19531 0,-2.39453 0,-3.59375c0,-1.19531 -0.01563,-2.39844 -0.04688,-3.60938l-2.32812,-0.25l0,-1.4375l14.75,0l0.20312,4.98438l-2.15625,0l-0.59375,-3.40625l-5.57812,0c-0.04297,1.09375 -0.0625,2.19922 -0.0625,3.3125c0,1.10547 0,2.23047 0,3.375l3.6875,0l0.35937,-2.5625l1.5625,0l0,6.67187l-1.5625,0l-0.34375,-2.53125l-3.70312,0c0,1.30469 0,2.5625 0,3.78125c0,1.21094 0.01953,2.41797 0.0625,3.625l6.14062,0l0.60938,-3.45312l2.15625,0zm0,0"/>
     </g>
    </g>
   </g>
   <g fill="#1025a1">
    <g transform="translate(391.973 244.465)">
     <g>
      <path d="m141.76563,91.47265c-0.03125,1.1875 -0.04688,2.38282 -0.04688,3.57813c0,1.19922 0,2.40625 0,3.625l0,1.01562c0,1.19922 0,2.39844 0,3.59375c0,1.19922 0.01563,2.40235 0.04688,3.60938l2.32812,0.25l0,1.4375l-8.95312,0l0,-1.4375l2.32812,-0.25c0.03125,-1.1875 0.04688,-2.37891 0.04688,-3.57813c0,-1.19531 0,-2.40625 0,-3.625l0,-5.0625l-6.42188,13.95313l-1.15625,0l-6.48437,-13.92188l0,12.10938l2.70312,0.375l0,1.4375l-6.96875,0l0,-1.4375l2.6875,-0.375l0,-15.29688l-2.375,-0.25l0,-1.4375l5.76563,0l6.48437,13.48438l6.3125,-13.48438l6.03125,0l0,1.4375l-2.32812,0.25zm0,0"/>
     </g>
    </g>
   </g>
   <g fill="#1025a1">
    <g transform="translate(191.71 265.143)">
     <g>
      <path d="m119.82813,108.58203l0,-8.5625l1.8125,0l0,7.0625l3.48437,0l0,1.5l-5.29687,0zm0,0"/>
     </g>
    </g>
   </g>
   <g fill="#1025a1">
    <g transform="translate(201.698 265.143)">
     <g>
      <path d="m119.82813,108.58203l0,-8.5625l1.8125,0l0,8.5625l-1.8125,0zm0,0"/>
     </g>
    </g>
   </g>
   <g fill="#1025a1">
    <g transform="translate(208.882 265.143)">
     <g>
      <path d="m121.60938,108.58203l-1.78125,0l0,-8.5625l4.90625,0l0,1.48437l-3.125,0l0,2.20313l2.90625,0l0,1.48437l-2.90625,0l0,3.39063zm0,0"/>
     </g>
    </g>
   </g>
   <g fill="#1025a1">
    <g transform="translate(218.676 265.143)">
     <g>
      <path d="m124.76563,108.58203l-4.9375,0l0,-8.5625l4.9375,0l0,1.48437l-3.125,0l0,1.875l2.90625,0l0,1.5l-2.90625,0l0,2.20313l3.125,0l0,1.5zm0,0"/>
     </g>
    </g>
   </g>
   <g fill="#1025a1">
    <g transform="translate(228.606 265.143)">
     <g>
      <path d="m124.89063,106.20703c0,0.77344 -0.28125,1.38281 -0.84375,1.82812c-0.55469,0.44922 -1.32422,0.67188 -2.3125,0.67188c-0.91797,0 -1.73047,-0.17578 -2.4375,-0.53125l0,-1.6875c0.58203,0.26172 1.07031,0.44531 1.46875,0.54687c0.40625,0.10547 0.77343,0.15625 1.10937,0.15625c0.39453,0 0.69531,-0.07031 0.90625,-0.21875c0.21875,-0.15625 0.32813,-0.38281 0.32813,-0.6875c0,-0.16406 -0.04688,-0.3125 -0.14063,-0.4375c-0.09375,-0.13281 -0.23437,-0.25781 -0.42187,-0.375c-0.17969,-0.125 -0.54688,-0.32031 -1.10938,-0.59375c-0.52344,-0.23828 -0.91406,-0.47265 -1.17187,-0.70312c-0.26172,-0.22656 -0.46875,-0.49219 -0.625,-0.79688c-0.15625,-0.30078 -0.23438,-0.64843 -0.23438,-1.04687c0,-0.75781 0.25391,-1.35156 0.76563,-1.78125c0.50781,-0.4375 1.21875,-0.65625 2.125,-0.65625c0.44531,0 0.875,0.05469 1.28125,0.15625c0.40625,0.10547 0.82812,0.25 1.26562,0.4375l-0.57812,1.42187c-0.46094,-0.1875 -0.83985,-0.3164 -1.14063,-0.39062c-0.30469,-0.07031 -0.59375,-0.10938 -0.875,-0.10938c-0.34375,0 -0.60937,0.07813 -0.79687,0.23438c-0.1875,0.15625 -0.28125,0.36719 -0.28125,0.625c0,0.15625 0.03515,0.29687 0.10937,0.42187c0.08203,0.11719 0.20313,0.23047 0.35938,0.34375c0.16406,0.11719 0.55078,0.3125 1.15625,0.59375c0.80078,0.38672 1.34765,0.77344 1.64062,1.15625c0.30078,0.38672 0.45313,0.85938 0.45313,1.42188zm0,0"/>
     </g>
    </g>
   </g>
   <g fill="#1025a1">
    <g transform="translate(238.424 265.143)">
     <g>
      <path d="m122.5,103.53515l1.78125,-3.51562l1.95313,0l-2.84375,5.23437l0,3.32813l-1.79688,0l0,-3.28125l-2.84375,-5.28125l1.96875,0l1.78125,3.51562zm0,0"/>
     </g>
    </g>
   </g>
   <g fill="#1025a1">
    <g transform="translate(249.12 265.143)">
     <g>
      <path d="m119.82813,108.58203l0,-8.5625l1.8125,0l0,7.0625l3.48437,0l0,1.5l-5.29687,0zm0,0"/>
     </g>
    </g>
   </g>
   <g fill="#1025a1">
    <g transform="translate(259.108 265.143)">
     <g>
      <path d="m124.76563,108.58203l-4.9375,0l0,-8.5625l4.9375,0l0,1.48437l-3.125,0l0,1.875l2.90625,0l0,1.5l-2.90625,0l0,2.20313l3.125,0l0,1.5zm0,0"/>
     </g>
    </g>
   </g>
   <g fill="#1025a1">
    <g transform="translate(269.038 265.143)">
     <g/>
    </g>
   </g>
   <g fill="#1025a1">
    <g transform="translate(275.367 265.143)">
     <g>
      <path d="m121.64063,103.8164l0.59375,0c0.57031,0 0.99218,-0.09375 1.26562,-0.28125c0.26953,-0.19531 0.40625,-0.5 0.40625,-0.90625c0,-0.40625 -0.14062,-0.6914 -0.42187,-0.85937c-0.27344,-0.17578 -0.69922,-0.26563 -1.28125,-0.26563l-0.5625,0l0,2.3125zm0,1.48438l0,3.28125l-1.8125,0l0,-8.5625l2.5,0c1.16406,0 2.02343,0.21484 2.57812,0.64062c0.5625,0.41797 0.84375,1.0586 0.84375,1.92188c0,0.5 -0.14062,0.94922 -0.42187,1.34375c-0.27344,0.39844 -0.66407,0.70312 -1.17188,0.92187c1.28906,1.92969 2.12891,3.17188 2.51563,3.73438l-2.01563,0l-2.04687,-3.28125l-0.96875,0zm0,0"/>
     </g>
    </g>
   </g>
   <g fill="#1025a1">
    <g transform="translate(286.497 265.143)">
     <g>
      <path d="m124.76563,108.58203l-4.9375,0l0,-8.5625l4.9375,0l0,1.48437l-3.125,0l0,1.875l2.90625,0l0,1.5l-2.90625,0l0,2.20313l3.125,0l0,1.5zm0,0"/>
     </g>
    </g>
   </g>
   <g fill="#1025a1">
    <g transform="translate(296.426 265.143)">
     <g>
      <path d="m126.9375,104.22265c0,1.40625 -0.40234,2.48438 -1.20312,3.23438c-0.80469,0.75 -1.96485,1.125 -3.48438,1.125l-2.42187,0l0,-8.5625l2.6875,0c1.39453,0 2.47656,0.37109 3.25,1.10937c0.78125,0.73047 1.17187,1.76172 1.17187,3.09375zm-1.89062,0.04688c0,-1.84375 -0.8125,-2.76563 -2.4375,-2.76563l-0.96875,0l0,5.57813l0.78125,0c1.75,0 2.625,-0.9375 2.625,-2.8125zm0,0"/>
     </g>
    </g>
   </g>
   <g fill="#1025a1">
    <g transform="translate(308.516 265.143)">
     <g>
      <path d="m119.82813,108.58203l0,-8.5625l1.8125,0l0,8.5625l-1.8125,0zm0,0"/>
     </g>
    </g>
   </g>
   <g fill="#1025a1">
    <g transform="translate(315.7 265.143)">
     <g>
      <path d="m121.60938,108.58203l-1.78125,0l0,-8.5625l4.90625,0l0,1.48437l-3.125,0l0,2.20313l2.90625,0l0,1.48437l-2.90625,0l0,3.39063zm0,0"/>
     </g>
    </g>
   </g>
   <g fill="#1025a1">
    <g transform="translate(325.494 265.143)">
     <g>
      <path d="m119.82813,108.58203l0,-8.5625l1.8125,0l0,8.5625l-1.8125,0zm0,0"/>
     </g>
    </g>
   </g>
   <g fill="#1025a1">
    <g transform="translate(332.678 265.143)">
     <g>
      <path d="m127.42188,108.58203l-2.29688,0l-3.73437,-6.48438l-0.04688,0c0.07031,1.14844 0.10938,1.96485 0.10938,2.45313l0,4.03125l-1.625,0l0,-8.5625l2.29687,0l3.71875,6.40625l0.03125,0c-0.05469,-1.11328 -0.07812,-1.89844 -0.07812,-2.35938l0,-4.04687l1.625,0l0,8.5625zm0,0"/>
     </g>
    </g>
   </g>
   <g fill="#1025a1">
    <g transform="translate(345.64 265.143)">
     <g>
      <path d="m124.76563,108.58203l-4.9375,0l0,-8.5625l4.9375,0l0,1.48437l-3.125,0l0,1.875l2.90625,0l0,1.5l-2.90625,0l0,2.20313l3.125,0l0,1.5zm0,0"/>
     </g>
    </g>
   </g>
   <g fill="#1025a1">
    <g transform="translate(355.57 265.143)">
     <g>
      <path d="m126.9375,104.22265c0,1.40625 -0.40234,2.48438 -1.20312,3.23438c-0.80469,0.75 -1.96485,1.125 -3.48438,1.125l-2.42187,0l0,-8.5625l2.6875,0c1.39453,0 2.47656,0.37109 3.25,1.10937c0.78125,0.73047 1.17187,1.76172 1.17187,3.09375zm-1.89062,0.04688c0,-1.84375 -0.8125,-2.76563 -2.4375,-2.76563l-0.96875,0l0,5.57813l0.78125,0c1.75,0 2.625,-0.9375 2.625,-2.8125zm0,0"/>
     </g>
    </g>
   </g>
   <g fill="#1025a1">
    <g transform="translate(367.655 265.143)">
     <g/>
    </g>
   </g>
  </g>
 </g>
</svg>